<svg xmlns="http://www.w3.org/2000/svg" viewBox="0 0 1600 900" role="img">
  <defs>
    <radialGradient id="bg" cx="62%" cy="45%" r="68%"><stop offset="0" stop-color="#7C3AED" stop-opacity=".21"/><stop offset=".5" stop-color="#11111A"/><stop offset="1" stop-color="#050508"/></radialGradient>
    <linearGradient id="platform" x1="0" y1="0" x2="1" y2="1"><stop stop-color="#11111A"/><stop offset=".6" stop-color="#7C3AED" stop-opacity=".22"/><stop offset="1" stop-color="#2563EB" stop-opacity=".2"/></linearGradient>
    <linearGradient id="glass" x1="0" y1="0" x2="1" y2="1"><stop stop-color="#F5F5F7" stop-opacity=".12"/><stop offset="1" stop-color="#7C3AED" stop-opacity=".08"/></linearGradient>
    <linearGradient id="card"><stop stop-color="#11111A"/><stop offset="1" stop-color="#7C3AED" stop-opacity=".28"/></linearGradient>
    <filter id="glow"><feGaussianBlur stdDeviation="4" result="b"/><feMerge><feMergeNode in="b"/><feMergeNode in="SourceGraphic"/></feMerge></filter>
  </defs>
  <rect width="1600" height="900" fill="url(#bg)"/>
  <circle cx="1330" cy="130" r="210" fill="#7C3AED" opacity=".06"/>
  <circle cx="420" cy="720" r="270" fill="#2563EB" opacity=".05"/>
  
    <g opacity=".34" stroke="#7C3AED" fill="none">
      <path d="M370 790 L930 350 L1530 790"/><path d="M495 790 L930 350 L1440 790"/><path d="M620 790 L930 350 L1350 790"/><path d="M745 790 L930 350 L1260 790"/><path d="M870 790 L930 350 L1170 790"/><path d="M995 790 L930 350 L1080 790"/><path d="M1120 790 L930 350 L990 790"/><path d="M1245 790 L930 350 L900 790"/><path d="M1370 790 L930 350 L810 790"/>
      <path d="M330 500 H1530"/><path d="M330 548 H1530"/><path d="M330 596 H1530"/><path d="M330 644 H1530"/><path d="M330 692 H1530"/><path d="M330 740 H1530"/><path d="M330 788 H1530"/>
    </g>
    <path d="M560 665 930 450 1320 666 944 874Z" fill="url(#platform)" stroke="#7C3AED" stroke-opacity=".7"/>
    <path d="M560 665 944 874 944 900 560 693Z" fill="#08080C"/>
    <path d="M944 874 1320 666 1320 696 944 900Z" fill="#11111A"/>
  <g filter="url(#glow)"><path d="M667 671V422l264-150 270 155v251L934 833Z" fill="#101018" stroke="#7C3AED" stroke-width="4"/><g fill="url(#glass)" stroke="#22D3EE" stroke-opacity=".65"><rect x="716" y="432" width="178" height="148" rx="12"/><rect x="936" y="376" width="213" height="173" rx="12"/><rect x="786" y="611" width="264" height="103" rx="12"/></g><path d="M747 535 800 481l38 30 39-48M965 497l50-64 36 32 64-79" fill="none" stroke="#22D3EE" stroke-width="7"/></g>
  <g fill="#F5F5F7"><circle cx="70" cy="45" r="2.2" opacity="0.45"/><circle cx="219" cy="128" r="1" opacity="0.2"/><circle cx="368" cy="211" r="1" opacity="0.2"/><circle cx="517" cy="294" r="1" opacity="0.45"/><circle cx="666" cy="377" r="1" opacity="0.2"/><circle cx="815" cy="460" r="2.2" opacity="0.2"/><circle cx="964" cy="543" r="1" opacity="0.45"/><circle cx="1113" cy="626" r="1" opacity="0.2"/><circle cx="1262" cy="89" r="1" opacity="0.2"/><circle cx="1411" cy="172" r="1" opacity="0.45"/><circle cx="110" cy="255" r="2.2" opacity="0.2"/><circle cx="259" cy="338" r="1" opacity="0.2"/><circle cx="408" cy="421" r="1" opacity="0.45"/><circle cx="557" cy="504" r="1" opacity="0.2"/><circle cx="706" cy="587" r="1" opacity="0.2"/><circle cx="855" cy="50" r="2.2" opacity="0.45"/><circle cx="1004" cy="133" r="1" opacity="0.2"/><circle cx="1153" cy="216" r="1" opacity="0.2"/><circle cx="1302" cy="299" r="1" opacity="0.45"/><circle cx="1451" cy="382" r="1" opacity="0.2"/><circle cx="150" cy="465" r="2.2" opacity="0.2"/><circle cx="299" cy="548" r="1" opacity="0.45"/><circle cx="448" cy="631" r="1" opacity="0.2"/><circle cx="597" cy="94" r="1" opacity="0.2"/><circle cx="746" cy="177" r="1" opacity="0.45"/><circle cx="895" cy="260" r="2.2" opacity="0.2"/><circle cx="1044" cy="343" r="1" opacity="0.2"/><circle cx="1193" cy="426" r="1" opacity="0.45"/></g>
</svg>